<svg width="14" height="17" viewBox="0 0 14 17" fill="none" xmlns="http://www.w3.org/2000/svg">
<g clip-path="url(#clip0_201_104)">
<path d="M13.5607 2.56066L11.9393 0.939344C11.658 0.658039 11.2765 0.500002 10.8787 0.5L5.5 0.5C4.67156 0.5 4 1.17156 4 2V3.5H1.5C0.671562 3.5 0 4.17156 0 5V15C0 15.8284 0.671562 16.5 1.5 16.5H8.5C9.32844 16.5 10 15.8284 10 15V13.5H12.5C13.3284 13.5 14 12.8284 14 12V3.62131C14 3.22349 13.842 2.84196 13.5607 2.56066ZM11 1.51534C11.0879 1.53704 11.1682 1.58237 11.2322 1.64644L12.8535 3.26778C12.9176 3.33178 12.9629 3.41209 12.9846 3.5H11V1.51534ZM9 15C9 15.2757 8.77569 15.5 8.5 15.5H1.5C1.22431 15.5 1 15.2757 1 15V5C1 4.72431 1.22431 4.5 1.5 4.5H4V12C4 12.8284 4.67156 13.5 5.5 13.5H9V15ZM13 12C13 12.2757 12.7757 12.5 12.5 12.5H5.5C5.22431 12.5 5 12.2757 5 12V2C5 1.72431 5.22431 1.5 5.5 1.5H10V3.75C10 4.1625 10.3375 4.5 10.75 4.5H13V12Z" />
</g>
<defs>
<clipPath id="clip0_201_104">
<rect width="14" height="16" fill="white" transform="translate(0 0.5)"/>
</clipPath>
</defs>
</svg>
