<svg width="18" height="17" viewBox="0 0 18 17" fill="none" xmlns="http://www.w3.org/2000/svg">
<path d="M6.10984 12.2134C5.96341 12.0669 5.96341 11.8295 6.10984 11.683L16.2083 1.58459L16.1862 1.5625L13.375 1.57319C13.1679 1.57319 13 1.40528 13 1.19819V0.885719C13 0.678594 13.1679 0.510719 13.375 0.510719L17.625 0.5C17.8321 0.5 18 0.667875 18 0.875L17.9893 5.125C17.9893 5.33209 17.8214 5.5 17.6143 5.5H17.3018C17.0947 5.5 16.9268 5.33209 16.9268 5.125L16.9375 2.31381L16.9154 2.29172L6.81697 12.3902C6.67053 12.5366 6.43309 12.5366 6.28662 12.3902L6.10984 12.2134ZM13.3598 7.34984L13.1098 7.59984C13.0395 7.67017 13 7.76555 13 7.865V15C13 15.2762 12.7761 15.5 12.5 15.5H1.5C1.22388 15.5 1 15.2762 1 15V4C1 3.72384 1.22388 3.5 1.5 3.5H12.1243C12.2237 3.5 12.3191 3.4605 12.3894 3.39016L12.6394 3.14016C12.8757 2.90391 12.7083 2.5 12.3743 2.5H1.5C0.671562 2.5 0 3.17156 0 4V15C0 15.8284 0.671562 16.5 1.5 16.5H12.5C13.3284 16.5 14 15.8284 14 15V7.61503C14 7.28094 13.5961 7.11363 13.3598 7.34984Z" />
</svg>
