<svg width="208" height="64" viewBox="0 0 208 64" fill="none" xmlns="http://www.w3.org/2000/svg">
<rect x="0.131757" y="0.131757" width="207.185" height="63.7365" rx="8.69583" fill="#0E0333"/>
<path d="M54.8039 41.9644C54.8039 40.6138 55.115 39.4022 55.7374 38.3296C56.373 37.2571 57.227 36.4229 58.2996 35.827C59.3854 35.2179 60.5705 34.9133 61.8549 34.9133C63.3247 34.9133 64.629 35.2775 65.7677 36.0058C66.9197 36.7208 67.7539 37.7404 68.2704 39.0645H65.5492C65.1917 38.3362 64.6952 37.7933 64.0596 37.4358C63.424 37.0783 62.6891 36.8995 61.8549 36.8995C60.9412 36.8995 60.1269 37.1048 59.4119 37.5153C58.6968 37.9258 58.1341 38.515 57.7236 39.283C57.3263 40.051 57.1277 40.9448 57.1277 41.9644C57.1277 42.984 57.3263 43.8778 57.7236 44.6458C58.1341 45.4138 58.6968 46.0096 59.4119 46.4333C60.1269 46.8438 60.9412 47.0491 61.8549 47.0491C62.6891 47.0491 63.424 46.8703 64.0596 46.5128C64.6952 46.1553 65.1917 45.6124 65.5492 44.8841H68.2704C67.7539 46.2082 66.9197 47.2278 65.7677 47.9429C64.629 48.6579 63.3247 49.0154 61.8549 49.0154C60.5572 49.0154 59.3721 48.7175 58.2996 48.1216C57.227 47.5125 56.373 46.6717 55.7374 45.5991C55.115 44.5266 54.8039 43.315 54.8039 41.9644ZM79.3025 49.0353C78.0181 49.0353 76.833 48.7373 75.7472 48.1415C74.6746 47.5324 73.8206 46.6916 73.185 45.619C72.5626 44.5332 72.2515 43.315 72.2515 41.9644C72.2515 40.6138 72.5626 39.4022 73.185 38.3296C73.8206 37.2571 74.6746 36.4229 75.7472 35.827C76.833 35.2179 78.0181 34.9133 79.3025 34.9133C80.6001 34.9133 81.7852 35.2179 82.8578 35.827C83.9436 36.4229 84.7977 37.2571 85.42 38.3296C86.0424 39.4022 86.3535 40.6138 86.3535 41.9644C86.3535 43.315 86.0424 44.5332 85.42 45.619C84.7977 46.6916 83.9436 47.5324 82.8578 48.1415C81.7852 48.7373 80.6001 49.0353 79.3025 49.0353ZM79.3025 47.0689C80.2161 47.0689 81.0305 46.8637 81.7455 46.4532C82.4606 46.0295 83.0167 45.4336 83.4139 44.6656C83.8244 43.8844 84.0297 42.984 84.0297 41.9644C84.0297 40.9448 83.8244 40.051 83.4139 39.283C83.0167 38.515 82.4606 37.9258 81.7455 37.5153C81.0305 37.1048 80.2161 36.8995 79.3025 36.8995C78.3888 36.8995 77.5745 37.1048 76.8595 37.5153C76.1444 37.9258 75.5817 38.515 75.1712 39.283C74.7739 40.051 74.5753 40.9448 74.5753 41.9644C74.5753 42.984 74.7739 43.8844 75.1712 44.6656C75.5817 45.4336 76.1444 46.0295 76.8595 46.4532C77.5745 46.8637 78.3888 47.0689 79.3025 47.0689ZM105.206 35.0921V48.8962H102.942V39.4419L98.7312 48.8962H97.1621L92.9314 39.4419V48.8962H90.6672V35.0921H93.1102L97.9565 45.9169L102.783 35.0921H105.206ZM124.807 35.0921V48.8962H122.543V39.4419L118.332 48.8962H116.763L112.532 39.4419V48.8962H110.268V35.0921H112.711L117.557 45.9169L122.384 35.0921H124.807ZM132.113 35.0921V43.891C132.113 44.9371 132.384 45.7249 132.927 46.2546C133.483 46.7842 134.251 47.0491 135.231 47.0491C136.224 47.0491 136.992 46.7842 137.535 46.2546C138.091 45.7249 138.369 44.9371 138.369 43.891V35.0921H140.634V43.8513C140.634 44.9768 140.389 45.9302 139.899 46.7114C139.409 47.4927 138.753 48.0753 137.932 48.4593C137.111 48.8433 136.204 49.0353 135.211 49.0353C134.218 49.0353 133.311 48.8433 132.49 48.4593C131.682 48.0753 131.04 47.4927 130.564 46.7114C130.087 45.9302 129.849 44.9768 129.849 43.8513V35.0921H132.113ZM157.008 48.8962H154.744L147.932 38.5878V48.8962H145.667V35.0722H147.932L154.744 45.3608V35.0722H157.008V48.8962ZM164.332 35.0921V48.8962H162.067V35.0921H164.332ZM178.308 35.0921V36.9393H174.634V48.8962H172.369V36.9393H168.675V35.0921H178.308ZM192.916 35.0921L188.347 43.891V48.8962H186.083V43.891L181.495 35.0921H184.017L187.215 41.8651L190.413 35.0921H192.916Z" fill="#C9B8FF"/>
<path d="M59.7098 21.5911C60.0452 21.644 60.3498 21.7809 60.6235 22.0016C60.9059 22.2222 61.1266 22.4959 61.2855 22.8225C61.4532 23.1491 61.5371 23.4978 61.5371 23.8686C61.5371 24.3365 61.4179 24.7602 61.1796 25.1398C60.9412 25.5105 60.5926 25.8062 60.1335 26.0269C59.6833 26.2388 59.1492 26.3447 58.5313 26.3447H55.0886V17.1155H58.3989C59.0257 17.1155 59.5597 17.2214 60.0011 17.4333C60.4425 17.6363 60.7735 17.9144 60.9942 18.2675C61.2149 18.6206 61.3252 19.0178 61.3252 19.4592C61.3252 20.0065 61.1752 20.4611 60.875 20.8231C60.5837 21.1762 60.1953 21.4322 59.7098 21.5911ZM56.2935 21.1011H58.3195C58.8844 21.1011 59.3214 20.9687 59.6303 20.7039C59.9393 20.4391 60.0938 20.0727 60.0938 19.6049C60.0938 19.137 59.9393 18.7707 59.6303 18.5058C59.3214 18.241 58.8756 18.1086 58.293 18.1086H56.2935V21.1011ZM58.4254 25.3516C59.0257 25.3516 59.4935 25.2104 59.829 24.9279C60.1644 24.6454 60.3321 24.2526 60.3321 23.7494C60.3321 23.2374 60.1556 22.8358 59.8025 22.5445C59.4494 22.2443 58.9771 22.0942 58.3857 22.0942H56.2935V25.3516H58.4254ZM64.4539 17.1155V22.9549C64.4539 23.7759 64.6526 24.385 65.0498 24.7822C65.4559 25.1795 66.0164 25.3781 66.7315 25.3781C67.4377 25.3781 67.9894 25.1795 68.3866 24.7822C68.7927 24.385 68.9957 23.7759 68.9957 22.9549V17.1155H70.2007V22.9417C70.2007 23.7097 70.0462 24.3585 69.7372 24.8882C69.4283 25.409 69.009 25.7974 68.4793 26.0534C67.9585 26.3094 67.3715 26.4374 66.7182 26.4374C66.065 26.4374 65.4735 26.3094 64.9439 26.0534C64.423 25.7974 64.0081 25.409 63.6992 24.8882C63.399 24.3585 63.249 23.7097 63.249 22.9417V17.1155H64.4539ZM73.482 17.1155V26.3447H72.277V17.1155H73.482ZM77.204 25.3649H80.4349V26.3447H75.9991V17.1155H77.204V25.3649ZM87.8586 17.1155V18.0953H85.3427V26.3447H84.1378V18.0953H81.6087V17.1155H87.8586ZM97.6257 21.5911C97.9611 21.644 98.2657 21.7809 98.5393 22.0016C98.8218 22.2222 99.0425 22.4959 99.2014 22.8225C99.3691 23.1491 99.453 23.4978 99.453 23.8686C99.453 24.3365 99.3338 24.7602 99.0955 25.1398C98.8571 25.5105 98.5084 25.8062 98.0494 26.0269C97.5992 26.2388 97.0651 26.3447 96.4472 26.3447H93.0044V17.1155H96.3148C96.9415 17.1155 97.4756 17.2214 97.917 17.4333C98.3584 17.6363 98.6894 17.9144 98.9101 18.2675C99.1308 18.6206 99.2411 19.0178 99.2411 19.4592C99.2411 20.0065 99.091 20.4611 98.7909 20.8231C98.4996 21.1762 98.1112 21.4322 97.6257 21.5911ZM94.2094 21.1011H96.2353C96.8003 21.1011 97.2372 20.9687 97.5462 20.7039C97.8552 20.4391 98.0097 20.0727 98.0097 19.6049C98.0097 19.137 97.8552 18.7707 97.5462 18.5058C97.2372 18.241 96.7915 18.1086 96.2088 18.1086H94.2094V21.1011ZM96.3412 25.3516C96.9415 25.3516 97.4094 25.2104 97.7448 24.9279C98.0803 24.6454 98.248 24.2526 98.248 23.7494C98.248 23.2374 98.0715 22.8358 97.7184 22.5445C97.3652 22.2443 96.893 22.0942 96.3015 22.0942H94.2094V25.3516H96.3412ZM107.521 17.1155L104.515 22.8622V26.3447H103.31V22.8622L100.291 17.1155H101.628L103.906 21.7897L106.183 17.1155H107.521ZM117.605 17.1155V18.0953H115.089V26.3447H113.884V18.0953H111.355V17.1155H117.605ZM126.133 17.1155V26.3447H124.928V22.1605H120.227V26.3447H119.022V17.1155H120.227V21.1673H124.928V17.1155H126.133ZM129.329 18.0953V21.1806H132.692V22.1737H129.329V25.3516H133.09V26.3447H128.124V17.1022H133.09V18.0953H129.329ZM145.037 19.7902C144.781 19.2518 144.41 18.8369 143.925 18.5456C143.439 18.2454 142.874 18.0953 142.23 18.0953C141.586 18.0953 141.003 18.2454 140.482 18.5456C139.97 18.8369 139.564 19.2606 139.264 19.8167C138.973 20.364 138.827 20.9996 138.827 21.7235C138.827 22.4473 138.973 23.0829 139.264 23.6302C139.564 24.1776 139.97 24.6013 140.482 24.9014C141.003 25.1927 141.586 25.3384 142.23 25.3384C143.13 25.3384 143.872 25.0691 144.455 24.5307C145.037 23.9922 145.377 23.2639 145.474 22.3458H141.793V21.366H146.759V22.2929C146.688 23.052 146.45 23.7494 146.044 24.385C145.638 25.0118 145.103 25.5105 144.441 25.8813C143.779 26.2432 143.042 26.4242 142.23 26.4242C141.374 26.4242 140.593 26.2256 139.886 25.8283C139.18 25.4222 138.62 24.8617 138.205 24.1467C137.799 23.4316 137.596 22.6239 137.596 21.7235C137.596 20.8231 137.799 20.0153 138.205 19.3003C138.62 18.5765 139.18 18.0159 139.886 17.6187C140.593 17.2126 141.374 17.0096 142.23 17.0096C143.21 17.0096 144.075 17.2523 144.825 17.7378C145.585 18.2233 146.136 18.9075 146.481 19.7902H145.037ZM150.153 17.1155V26.3447H148.948V17.1155H150.153ZM158.483 17.1155V18.0953H155.967V26.3447H154.762V18.0953H152.233V17.1155H158.483ZM159.582 21.7235C159.582 20.8231 159.785 20.0153 160.191 19.3003C160.597 18.5765 161.149 18.0115 161.846 17.6054C162.552 17.1993 163.334 16.9963 164.19 16.9963C165.196 16.9963 166.075 17.2391 166.825 17.7246C167.575 18.2101 168.123 18.8987 168.467 19.7902H167.024C166.768 19.2341 166.397 18.806 165.911 18.5058C165.435 18.2057 164.861 18.0556 164.19 18.0556C163.546 18.0556 162.967 18.2057 162.455 18.5058C161.943 18.806 161.542 19.2341 161.25 19.7902C160.959 20.3376 160.813 20.982 160.813 21.7235C160.813 22.4562 160.959 23.1006 161.25 23.6567C161.542 24.204 161.943 24.6278 162.455 24.9279C162.967 25.228 163.546 25.3781 164.19 25.3781C164.861 25.3781 165.435 25.2325 165.911 24.9411C166.397 24.641 166.768 24.2129 167.024 23.6567H168.467C168.123 24.5395 167.575 25.2236 166.825 25.7091C166.075 26.1858 165.196 26.4242 164.19 26.4242C163.334 26.4242 162.552 26.2256 161.846 25.8283C161.149 25.4222 160.597 24.8617 160.191 24.1467C159.785 23.4316 159.582 22.6239 159.582 21.7235ZM174.511 26.4374C173.655 26.4374 172.874 26.2388 172.167 25.8416C171.461 25.4355 170.901 24.8749 170.486 24.1599C170.08 23.436 169.877 22.6239 169.877 21.7235C169.877 20.8231 170.08 20.0153 170.486 19.3003C170.901 18.5765 171.461 18.0159 172.167 17.6187C172.874 17.2126 173.655 17.0096 174.511 17.0096C175.376 17.0096 176.162 17.2126 176.868 17.6187C177.574 18.0159 178.13 18.572 178.536 19.2871C178.943 20.0021 179.146 20.8142 179.146 21.7235C179.146 22.6327 178.943 23.4449 178.536 24.1599C178.13 24.8749 177.574 25.4355 176.868 25.8416C176.162 26.2388 175.376 26.4374 174.511 26.4374ZM174.511 25.3913C175.156 25.3913 175.734 25.2413 176.246 24.9411C176.767 24.641 177.173 24.2129 177.464 23.6567C177.764 23.1006 177.914 22.4562 177.914 21.7235C177.914 20.982 177.764 20.3376 177.464 19.7902C177.173 19.2341 176.771 18.806 176.259 18.5058C175.747 18.2057 175.164 18.0556 174.511 18.0556C173.858 18.0556 173.275 18.2057 172.763 18.5058C172.251 18.806 171.845 19.2341 171.545 19.7902C171.254 20.3376 171.108 20.982 171.108 21.7235C171.108 22.4562 171.254 23.1006 171.545 23.6567C171.845 24.2129 172.251 24.641 172.763 24.9411C173.284 25.2413 173.867 25.3913 174.511 25.3913ZM182.405 17.1155V26.3447H181.2V17.1155H182.405ZM192.178 26.3447H190.973L186.127 18.9958V26.3447H184.922V17.1022H186.127L190.973 24.438V17.1022H192.178V26.3447Z" fill="#F0EBFF"/>
<path fill-rule="evenodd" clip-rule="evenodd" d="M40.1816 39.8101C40.9448 40.419 41.598 40.9432 42.0005 41.2723C42.1396 41.3861 42.2514 41.529 42.328 41.6907C42.4046 41.8523 42.444 42.0287 42.4433 42.2072L42.4309 47.7038C42.3949 47.9154 42.2843 48.1074 42.1187 48.246C41.9531 48.3845 41.7432 48.4606 41.5263 48.4607H29.6318C20.7215 48.4607 13.2963 41.2512 13.3666 32.4405C13.4123 26.7702 16.4618 21.8084 21.0192 19.0322V13.6515C21.0192 13.4443 21.0622 13.2392 21.1456 13.0491C21.229 12.859 21.351 12.6879 21.504 12.5463C21.6571 12.4047 21.8379 12.2957 22.0352 12.226C22.2326 12.1563 22.4423 12.1275 22.6514 12.1413C23.4648 12.1934 24.0799 12.8972 24.0799 13.7032V17.5855C25.3159 17.1532 26.6009 16.8729 27.906 16.751V13.6515C27.906 13.4443 27.9491 13.2392 28.0325 13.0491C28.1159 12.859 28.2379 12.6878 28.391 12.5463C28.544 12.4047 28.7248 12.2957 28.9222 12.226C29.1196 12.1563 29.3294 12.1275 29.5385 12.1413C30.3519 12.1934 30.967 12.8972 30.967 13.7032V16.7496C34.8402 17.1117 38.3139 18.8327 40.8925 21.4259C41.3754 21.9113 41.8265 22.4267 42.2429 22.969C42.5627 23.3854 42.4907 23.7066 42.0507 23.9966L40.2681 25.4277C41.6864 27.5455 42.4433 30.0294 42.4442 32.57C42.4495 35.1553 41.6598 37.6801 40.1816 39.8101ZM37.8283 37.9392C38.8703 36.3387 39.425 34.4749 39.425 32.57C39.425 30.6216 38.8282 28.7719 37.8432 27.2419L34.1313 30.0183C34.5586 30.7874 34.7859 31.6494 34.7929 32.5269C34.7999 33.4044 34.5862 34.2699 34.1712 35.0455L34.2899 35.1393C34.8104 35.5504 36.2791 36.7106 37.8283 37.9392ZM39.3838 45.4338L39.4 43.2119L31.8502 37.2973C31.1019 37.6722 30.2747 37.8673 29.4358 37.8666C26.4775 37.8666 24.0792 35.4952 24.0792 32.5696C24.0792 29.6439 26.4775 27.2725 29.4358 27.2725C30.2618 27.2716 31.0767 27.4605 31.8163 27.8242L38.0643 22.9639C35.7415 20.8278 32.8582 19.7052 29.4358 19.7052C27.5884 19.7038 25.762 20.0931 24.0792 20.8471V25.7591C24.0792 25.9663 24.0362 26.1713 23.9528 26.3614C23.8694 26.5515 23.7474 26.7227 23.5943 26.8642C23.4413 27.0058 23.2605 27.1148 23.0632 27.1845C22.8658 27.2542 22.6561 27.283 22.447 27.2693C21.6336 27.2171 21.0185 26.5134 21.0185 25.7071V22.765C18.226 25.1116 16.4465 28.6017 16.4273 32.5049C16.3919 39.6154 22.4058 45.4338 29.5966 45.4338H39.3838ZM31.3447 33.8309C31.597 33.4576 31.7316 33.0186 31.7316 32.5696C31.7316 31.9675 31.4898 31.39 31.0592 30.9642C30.6286 30.5385 30.0447 30.2993 29.4358 30.2993C28.9817 30.2993 28.5378 30.4324 28.1603 30.6819C27.7828 30.9313 27.4885 31.2859 27.3147 31.7008C27.141 32.1156 27.0955 32.5721 27.1841 33.0125C27.2727 33.4529 27.4913 33.8574 27.8124 34.1749C28.1335 34.4925 28.5426 34.7087 28.9879 34.7963C29.4333 34.8839 29.8949 34.8389 30.3144 34.6671C30.7339 34.4953 31.0924 34.2043 31.3447 33.8309Z" fill="#C9B8FF"/>
<rect x="0.131757" y="0.131757" width="207.185" height="63.7365" rx="8.69583" stroke="#F0EBFF" stroke-width="0.263514"/>
</svg>
