<svg width="33" height="32" viewBox="0 0 33 32" fill="none" xmlns="http://www.w3.org/2000/svg">
<path d="M12.8032 32C10.6978 32.0003 8.62476 31.4812 6.76783 30.4889C4.9109 29.4965 3.32741 28.0614 2.15764 26.3108C0.987864 24.5602 0.267923 22.5481 0.0616108 20.4528C-0.144702 18.3575 0.168982 16.2436 0.974863 14.2985C1.78074 12.3533 3.05394 10.637 4.68166 9.30151C6.30938 7.96603 8.24137 7.05264 10.3065 6.64226C12.3715 6.23188 14.506 6.33718 16.5206 6.94883C18.5353 7.56048 20.368 8.6596 21.8563 10.1488C23.6459 11.9393 24.8643 14.2202 25.3578 16.7032C25.8512 19.1861 25.5974 21.7596 24.6284 24.0983C23.6595 26.437 22.0189 28.4359 19.9141 29.8424C17.8093 31.2489 15.3347 31.9997 12.8032 32ZM12.8032 8.8156C10.4013 8.81631 8.07387 9.6498 6.21752 11.1741C4.36116 12.6983 3.09071 14.8191 2.62262 17.175C2.15452 19.5309 2.51774 21.9762 3.65038 24.0944C4.78303 26.2125 6.61503 27.8724 8.83428 28.7913C11.0535 29.7102 13.5227 29.8313 15.8212 29.1338C18.1197 28.4363 20.1052 26.9635 21.4396 24.9663C22.7739 22.9691 23.3745 20.571 23.1391 18.1806C22.9036 15.7902 21.8467 13.5554 20.1483 11.8569C19.186 10.8893 18.0413 10.1223 16.7805 9.60026C15.5197 9.07821 14.1678 8.81151 12.8032 8.8156Z" fill="#8C65F7"/>
<path d="M28.2383 9.23076C30.4396 8.53541 31.6605 6.1872 30.9651 3.98587C30.2698 1.78454 27.9216 0.563688 25.7202 1.25903C23.5189 1.95438 22.2981 4.3026 22.9934 6.50393C23.6888 8.70526 26.037 9.9261 28.2383 9.23076Z" fill="#FFDB4C"/>
<path d="M13.4549 23.3181C15.7354 22.9593 17.2933 20.8198 16.9346 18.5393C16.5758 16.2588 14.4363 14.7009 12.1558 15.0597C9.87531 15.4184 8.31743 17.5579 8.67618 19.8384C9.03493 22.1189 11.1745 23.6768 13.4549 23.3181Z" fill="#FFDB4C"/>
</svg>
