<svg width="16" height="17" viewBox="0 0 16 17" fill="none" xmlns="http://www.w3.org/2000/svg">
<path d="M12 8.5C11.4478 8.5 11 8.94781 11 9.5C11 10.0522 11.4478 10.5 12 10.5C12.5522 10.5 13 10.0522 13 9.5C13 8.94781 12.5522 8.5 12 8.5ZM14.5 3.5H14V3C14 2.17156 13.3284 1.5 12.5 1.5H3C1.34312 1.5 0 2.84312 0 4.5V12.5C0 14.1569 1.34312 15.5 3 15.5H14C15.1047 15.5 16 14.6047 16 13.5V5C16 4.17156 15.3284 3.5 14.5 3.5ZM15 13.5C15 14.0513 14.5513 14.5 14 14.5H3C1.89719 14.5 1 13.6028 1 12.5V4.5C1 3.39719 1.89719 2.5 3 2.5H12.5C12.7756 2.5 13 2.72438 13 3V3.5H3.5C3.22375 3.5 3 3.72375 3 4C3 4.27625 3.22375 4.5 3.5 4.5H14.5C14.7756 4.5 15 4.72438 15 5V13.5Z" />
</svg>
